<svg width="200" height="200" viewBox="0 0 200 200" fill="none" xmlns="http://www.w3.org/2000/svg">
<path d="M85.1508 191.733C77.796 193.533 70.4295 192.04 64.767 187.222L53.7699 177.869C48.3135 173.229 43.4845 168.271 37.5669 164.17C33.6344 160.963 30.2776 157.473 28.7795 152.539C26.6517 145.523 27.4991 138.229 30.3853 131.516C25.2192 122.633 26.0759 111.666 33.7514 104.835C32.4125 97.9136 32.0286 91.3547 31.3006 84.4376L27.9907 52.9842L25.0577 23.7709C24.8166 21.3623 25.3034 19.197 27.0544 17.5444C29.8516 15.4564 32.8315 14.0636 36.2912 13.0992C56.6 7.43801 105.092 3.31059 150.813 12.0131C155.178 12.8441 159.134 14.1081 162.931 16.1423C166.133 17.8581 167.631 20.8964 167.371 24.5106L165.527 50.1027L161.194 111.411C170.508 113.129 174.497 121.312 174.834 130.238C174.862 139.941 170.513 149.187 162.987 155.285C156.405 160.692 147.669 162.443 140.249 157.991C130.532 176.502 113.009 188.21 92.4915 190.633L85.1601 191.738L85.1508 191.733Z" fill="white"/>
<path d="M138.665 29.1409C110.772 32.741 82.9564 32.7363 55.2881 29.1573C48.2001 28.2397 41.6061 26.8188 34.9441 24.677C32.587 23.9185 30.4428 22.9588 28.8323 21.044C29.785 19.6747 31.1403 18.6939 32.7649 18.0759C48.488 12.0951 74.272 10.7024 91.7274 10.5479C108.399 10.4004 124.644 11.098 141.064 13.5979C147.296 14.5483 153.162 15.7093 158.939 17.9331C160.687 18.6049 162.408 19.4593 163.335 21.1049C161.853 23.0478 159.793 24.0988 157.591 24.8759C151.467 27.0412 145.453 28.2654 138.667 29.1409H138.665Z" fill="#1A0154"/>
<path d="M139.229 152.499C134.203 163.473 126.6 172.508 116.499 178.784C107.843 184.161 98.3629 186.464 88.3653 187.738C83.5854 188.346 79.1894 189.746 74.372 188.377C66.8089 186.228 57.338 176.282 50.6737 170.301L47.3404 167.31L38.1925 160.196C29.2741 152.96 29.4286 141.149 34.5456 130.983C28.1786 123.405 29.5386 112.301 37.4411 106.21C36.1888 99.9061 35.7417 93.8317 35.0559 87.3758L31.8583 57.3316L28.429 25.4334C37.5231 30.2648 48.2346 31.6108 58.4007 33.0808C80.6102 35.7306 102.656 36.0115 124.985 34.1506C133.889 33.4343 142.265 32.306 150.853 30.3421C155.483 29.2817 159.685 27.8889 163.955 25.4662L161.464 59.0731L157.571 114.464C163.334 114.351 168.421 117.806 170.193 123.298C172.573 130.678 171.218 138.567 167.264 145.151C164.814 149.302 161.6 152.675 157.396 154.931C151.214 158.096 143.941 157.965 139.231 152.499H139.229Z" fill="#1A0154"/>
<path d="M36.1527 127.532C32.8452 122.272 33.1565 115.097 37.8475 110.388C38.9594 116.05 38.517 121.829 36.1527 127.532Z" fill="white"/>
<path d="M122.844 48.5476C121.943 45.6052 118.776 44.1422 120.725 41.8786C121.47 41.0125 122.647 40.418 124.005 40.7995C124.939 41.0617 125.796 42.2719 125.931 43.5898C126.142 45.6356 124.965 47.5059 122.842 48.5499L122.844 48.5476Z" fill="white"/>
<path d="M104.224 42.6895C104.599 43.7592 102.536 44.623 101.614 44.2648C100.956 44.0097 100.746 43.6141 100.694 43.1155C100.64 42.5865 101.013 42.027 101.792 41.9053C102.342 41.8187 103.889 41.7298 104.224 42.6871V42.6895Z" fill="white"/>
<path d="M134.798 81.1305C128.571 70.021 137.078 60.9972 134.482 58.8648C134.065 58.523 133.162 58.3428 132.572 58.6611C118.073 66.4841 108.89 61.868 100.407 65.0468C94.0819 67.4181 87.8507 69.4007 80.9874 69.5669C70.0816 69.8314 59.115 66.2313 51.8117 58.0291C49.5481 58.3872 48.1436 59.8573 46.6361 61.2079C43.0828 64.3914 40.5664 67.9682 38.345 72.5866L36.6339 55.9083C36.0463 50.1804 55.2667 41.6107 69.5175 55.1757C73.8363 59.2861 79.0914 61.9827 84.9879 62.2472C86.8277 62.3292 88.6489 62.3221 89.7327 60.5853C84.4214 60.5923 79.81 59.3446 75.8049 56.2946L66.5611 49.2534C61.9427 45.7375 56.4699 44.5531 50.3861 45.5713C54.7868 41.6154 60.9689 41.2011 66.334 43.1884C72.083 45.3185 76.8395 50.0751 84.1662 52.7529C87.5534 53.9912 90.985 54.9065 94.6343 54.7075C100.306 54.3962 105.353 52.1748 109.99 49.0872C113.37 46.8354 117.076 47.0226 117.534 48.4529C117.963 49.7848 115.636 50.4074 116.067 52.7553C116.619 55.7726 122.546 56.2173 125.914 54.9556L138.279 50.3208L145.348 48.1018C149.615 46.7628 158.187 49.319 157.808 54.5343L153.4 115.009C148.742 116.68 144.948 119.321 141.792 123.143C137.544 120.61 135.968 115.987 136.743 111.343L139.243 99.782C140.315 94.8218 139.739 89.9483 137.27 85.5406L134.8 81.1328L134.798 81.1305Z" fill="white"/>
<path d="M144.744 68.4754C148.829 74.1542 148.941 82.4992 147.731 82.9322C147.401 83.0493 146.947 82.7379 146.855 82.1785C146.226 78.2553 145.378 74.496 143.749 70.8841C142.764 68.6978 141.148 67.2114 139.606 64.9595C141.855 65.004 143.447 66.6753 144.742 68.4754H144.744Z" fill="#1A0154"/>
<path d="M152.66 74.2668C151.405 72.1952 151.319 70.1166 150.668 68.0941C149.629 64.8568 147.967 62.2772 145.492 59.4589C151.286 60.105 154.607 68.2978 152.658 74.2692L152.66 74.2668Z" fill="#1A0154"/>
<path d="M147.818 90.5165C148.326 97.4827 144.502 101.528 144.881 98.508L146.133 88.5689C147.264 88.6134 147.746 89.5123 147.818 90.5141V90.5165Z" fill="#1A0154"/>
<path d="M146.724 153.419C140.851 152.167 140.573 146.345 138.576 146.626C138.049 146.701 137.787 147.005 137.537 147.644C130.02 166.762 116.109 178.957 95.6832 183.342C98.3798 180.76 101.069 177.005 99.0938 175.697C97.1181 174.388 96.3129 181.109 86.2264 184.451C81.5963 185.987 76.917 186.069 72.4718 183.985C69.1596 182.433 66.7181 180.013 63.9583 177.705C60.0094 174.405 56.3624 171.144 52.6756 167.544C49.2791 164.227 45.6392 161.523 41.8517 158.784C32.5447 152.057 32.849 141.804 37.8911 132.038C41.6926 124.676 42.6148 116.755 41.3578 108.502L39.1575 94.0494C37.4932 83.1272 41.3204 68.7922 50.9013 61.9547C63.9794 74.4475 83.0827 75.2223 99.2717 69.0473C103.136 67.191 107.02 66.5543 111.346 66.7791C118.052 67.1302 124.356 66.0909 130.791 63.2819C127.939 70.7772 128.576 78.4667 133.012 85.0092C135.964 89.3631 137.099 94.122 135.879 99.3724L133.574 109.297C131.849 116.72 135.081 125.121 142.726 127.08L147.176 122.539C149.786 119.876 153.115 118.106 156.825 117.839C162.473 117.434 166.722 121.17 167.614 126.753C169.236 136.903 164.287 147.254 155.25 152.373C152.693 153.822 149.494 154.009 146.727 153.419H146.724Z" fill="white"/>
<path d="M100.296 126.115C95.3894 128.29 89.9751 125.687 88.463 120.612C86.6535 114.533 87.3885 107.908 90.2701 102.169C92.976 104.276 95.4573 106.298 98.9732 107.571C98.821 103.199 97.3767 99.1726 96.0987 94.9053C98.7438 92.4568 102.971 91.9793 105.965 93.8917C108.449 95.4788 109.877 98.2878 110.565 101.094C111.869 106.42 110.874 111.675 108.776 116.649C107.07 120.696 104.556 124.226 100.293 126.113L100.296 126.115Z" fill="#1A0154"/>
<path d="M53.3437 124.598C45.5886 122.978 44.2754 111.071 46.5367 103.316L55.8648 104.381C54.5094 101.001 52.3653 98.3179 50.4318 95.1789C52.2318 93.0207 54.7857 92.5198 57.6578 93.1073C65.0314 94.6148 68.7626 110.055 61.471 120.748C59.6405 123.432 56.5576 125.27 53.3437 124.598Z" fill="#1A0154"/>
<path d="M115.736 94.6148C113.95 95.7594 112.37 92.0609 111.134 90.5652C104.557 82.6135 95.767 85.2726 94.6669 83.9126C93.2647 82.1781 99.5334 75.8392 106.453 77.1851C109.526 77.782 112.361 79.8466 114.028 82.4543C116.523 86.3564 117.314 93.6059 115.736 94.6148Z" fill="#1A0154"/>
<path d="M62.5226 83.1853C61.3054 84.7139 58.6041 83.0027 55.8396 83.3913C48.2086 84.461 45.0251 89.248 42.8317 88.0354C40.4862 86.7386 43.3139 79.2481 49.2994 75.3553C52.6022 73.2065 56.6237 73.6255 59.5732 76.2987C61.4692 78.0191 63.5689 81.8721 62.5226 83.1877V83.1853Z" fill="#1A0154"/>
<path d="M67.5056 131.027C71.5856 133.691 75.1437 130.032 76.0472 132.53C77.2668 135.9 69.1536 136.781 64.8488 133.129C62.2178 130.898 61.4266 126.713 63.3554 123.852C65.3872 120.837 68.8914 119.845 72.3253 120.229C78.0065 120.865 81.7611 127.345 78.8819 128.206C78.168 128.419 77.1334 128.115 76.7869 127.129C75.2022 122.621 68.9242 122.797 66.6817 124.913C64.8629 126.631 65.3895 129.641 67.508 131.025L67.5056 131.027Z" fill="#1A0154"/>
<path d="M154.03 138.958C152.633 145.391 145.667 146.1 145.697 144.218C145.72 142.76 149.665 143.617 151.289 139.186C152.623 135.546 151.439 132.456 149.587 132.346C149.005 132.311 148.426 132.781 148.134 133.446L146.888 136.264C146.652 136.798 145.95 136.934 145.601 136.854C143.433 136.36 147.453 129.186 151.09 125.7C153.719 123.179 157.951 122.247 160.961 124.382C164.835 127.13 164.229 134.614 162.228 134.483C161.727 134.45 161.303 133.975 161.32 133.291L161.387 130.297C161.434 128.254 160.388 126.093 158.272 125.642C155.325 125.012 152.579 126.807 151.469 129.605C154.187 132.17 154.793 135.478 154.037 138.958H154.03Z" fill="#1A0154"/>
<path d="M65.3494 170.996C64.818 170.413 65.2394 169.615 65.5039 169.338C67.1026 167.665 68.3456 173.87 77.662 174.224C83.3642 174.439 88.3876 171.92 91.3042 166.899C91.5804 166.424 92.1563 166.099 92.608 166.256C94.6797 166.977 90.3796 173.88 84.1484 176.021C77.4115 178.336 70.1714 176.284 65.3517 170.998L65.3494 170.996Z" fill="#1A0154"/>
<path d="M112.352 134.723C112.565 135.94 112.108 137.155 111.427 137.682C110.51 138.393 109.321 138.286 108.452 137.85C107.343 137.295 106.98 136.106 107.186 134.786C107.413 133.332 108.48 132.649 109.681 132.506C111.086 132.34 112.045 132.979 112.35 134.723H112.352Z" fill="#1A0154"/>
<path d="M117.106 135.694C118.556 135.694 119.732 134.518 119.732 133.068C119.732 131.617 118.556 130.441 117.106 130.441C115.655 130.441 114.479 131.617 114.479 133.068C114.479 134.518 115.655 135.694 117.106 135.694Z" fill="#1A0154"/>
<path d="M111.562 129.847C112.796 129.847 113.796 128.847 113.796 127.614C113.796 126.38 112.796 125.381 111.562 125.381C110.329 125.381 109.329 126.38 109.329 127.614C109.329 128.847 110.329 129.847 111.562 129.847Z" fill="#1A0154"/>
<path d="M45.8135 133.005C46.5711 133.005 47.1852 132.391 47.1852 131.633C47.1852 130.876 46.5711 130.262 45.8135 130.262C45.0559 130.262 44.4418 130.876 44.4418 131.633C44.4418 132.391 45.0559 133.005 45.8135 133.005Z" fill="#1A0154"/>
<path d="M42.7187 137.908C43.4518 137.908 44.046 137.314 44.046 136.581C44.046 135.848 43.4518 135.254 42.7187 135.254C41.9857 135.254 41.3915 135.848 41.3915 136.581C41.3915 137.314 41.9857 137.908 42.7187 137.908Z" fill="#1A0154"/>
<path d="M46.7501 137.496C47.4611 137.496 48.0375 136.92 48.0375 136.209C48.0375 135.498 47.4611 134.922 46.7501 134.922C46.0391 134.922 45.4626 135.498 45.4626 136.209C45.4626 136.92 46.0391 137.496 46.7501 137.496Z" fill="#1A0154"/>
<path d="M115.129 145.703C115.096 148.61 110.459 146.679 106.92 144.43C102.9 152.887 95.8054 161.962 88.0878 167.03C80.3701 172.098 71.8028 170.808 65.8057 164.298C60.8315 158.9 57.8469 152.225 56.4986 144.823C54.2913 143.856 52.4748 142.587 50.5717 140.975L46.1663 143.636C45.3845 144.109 44.6097 143.999 43.9449 143.521C43.4557 143.17 42.9501 141.855 43.8957 141.398C52.545 137.227 51.0492 131.139 53.4345 131.183C55.5927 131.223 54.6868 134.9 52.6035 138.128C56.0726 141.358 60.1456 142.95 64.5299 144.263C74.3496 147.201 84.3495 147.304 94.312 144.785C97.6406 143.943 100.838 143.201 103.656 141.106C101.4 137.541 99.532 132.747 102.261 132.485C103.071 132.407 103.771 132.999 104.008 134.006C105.115 138.695 108.624 142.754 113.35 143.849C114.436 144.102 115.138 144.682 115.126 145.708L115.129 145.703Z" fill="#1A0154"/>
<path d="M87.3355 153C79.7022 155.081 70.7088 154.346 65.3039 148.019C76.4812 150.77 85.1843 150.278 96.2329 147.729C93.7166 150.294 90.8093 152.055 87.3379 153.003L87.3355 153Z" fill="white"/>
<path d="M89.2955 161.831C85.1733 166.241 78.268 168.177 72.9239 165.249C76.6388 161.098 84.4828 159.455 89.2955 161.831Z" fill="white"/>
</svg>
