<svg width="150" height="186" viewBox="0 0 150 186" fill="none" xmlns="http://www.w3.org/2000/svg">
<path d="M60.1508 184.733C52.796 186.533 45.4295 185.04 39.767 180.222L28.7699 170.869C23.3135 166.229 18.4845 161.271 12.5669 157.17C8.63436 153.963 5.27764 150.473 3.77953 145.539C1.65174 138.523 2.49911 131.229 5.38532 124.516C0.21917 115.633 1.0759 104.666 8.75139 97.8354C7.41245 90.9136 7.02856 84.3547 6.30057 77.4376L2.99068 45.9842L0.0576528 16.7709C-0.18345 14.3623 0.303437 12.197 2.05436 10.5444C4.85162 8.4564 7.83146 7.06362 11.2912 6.0992C31.6 0.438013 80.0924 -3.68941 125.813 5.01308C130.178 5.84406 134.134 7.10809 137.931 9.14225C141.133 10.8581 142.631 13.8964 142.371 17.5106L140.527 43.1026L136.194 104.411C145.508 106.129 149.497 114.312 149.834 123.238C149.862 132.941 145.513 142.187 137.987 148.285C131.405 153.692 122.669 155.443 115.249 150.991C105.532 169.502 88.0087 181.21 67.4915 183.633L60.1601 184.738L60.1508 184.733Z" fill="white"/>
<path d="M113.665 22.1409C85.7721 25.741 57.9563 25.7363 30.288 22.1572C23.2001 21.2396 16.606 19.8188 9.94411 17.6769C7.58692 16.9185 5.44275 15.9588 3.83228 14.044C4.78498 12.6746 6.14031 11.6939 7.76482 11.0759C23.488 5.09513 49.272 3.70235 66.7273 3.54785C83.3985 3.40038 99.6437 4.09794 116.064 6.59792C122.296 7.54829 128.162 8.70933 133.939 10.9331C135.687 11.6049 137.408 12.4593 138.335 14.1049C136.853 16.0477 134.793 17.0988 132.591 17.8759C126.467 20.0412 120.453 21.2654 113.667 22.1409H113.665Z" fill="#FF9900"/>
<path d="M114.229 145.499C109.203 156.473 101.6 165.508 91.4994 171.784C82.8431 177.161 73.3629 179.464 63.3653 180.738C58.5854 181.346 54.1893 182.746 49.372 181.377C41.8088 179.228 32.3379 169.282 25.6737 163.301L22.3404 160.31L13.1925 153.196C4.27404 145.96 4.42854 134.149 9.54554 123.983C3.17855 116.405 4.53856 105.301 12.4411 99.2099C11.1888 92.9061 10.7417 86.8317 10.0558 80.3758L6.85829 50.3316L3.42902 18.4334C12.523 23.2649 23.2346 24.6108 33.4007 26.0808C55.6102 28.7306 77.6559 29.0115 99.9848 27.1506C108.889 26.4343 117.265 25.306 125.853 23.3421C130.483 22.2817 134.685 20.8889 138.955 18.4662L136.464 52.0731L132.571 107.464C138.334 107.351 143.421 110.806 145.193 116.298C147.573 123.678 146.218 131.567 142.264 138.151C139.814 142.302 136.6 145.675 132.396 147.931C126.214 151.096 118.941 150.965 114.231 145.499H114.229Z" fill="#FF9900"/>
<path d="M11.1527 120.532C7.84512 115.272 8.15646 108.097 12.8474 103.388C13.9593 109.05 13.5169 114.829 11.1527 120.532Z" fill="white"/>
<path d="M97.8438 41.5476C96.9426 38.6052 93.7755 37.1422 95.7254 34.8786C96.4698 34.0125 97.6472 33.418 99.0049 33.7995C99.9388 34.0617 100.796 35.2719 100.931 36.5898C101.142 38.6356 99.9646 40.5059 97.8415 41.5499L97.8438 41.5476Z" fill="white"/>
<path d="M79.2241 35.6895C79.5986 36.7592 77.5363 37.623 76.6141 37.2648C75.9563 37.0097 75.7456 36.6141 75.6941 36.1155C75.6403 35.5865 76.0125 35.027 76.792 34.9053C77.3421 34.8187 78.8893 34.7298 79.2241 35.6871V35.6895Z" fill="white"/>
<path d="M109.798 74.1305C103.571 63.021 112.078 53.9972 109.482 51.8648C109.065 51.523 108.162 51.3428 107.572 51.6611C93.0727 59.4841 83.8897 54.868 75.4067 58.0468C69.0818 60.4181 62.8506 62.4007 55.9874 62.5669C45.0816 62.8314 34.1149 59.2313 26.8116 51.0291C24.548 51.3872 23.1436 52.8573 21.6361 54.2079C18.0827 57.3914 15.5664 60.9682 13.3449 65.5866L11.6338 48.9083C11.0463 43.1804 30.2666 34.6107 44.5174 48.1757C48.8362 52.2861 54.0913 54.9827 59.9878 55.2472C61.8277 55.3292 63.6488 55.3221 64.7326 53.5853C59.4213 53.5923 54.8099 52.3446 50.8048 49.2946L41.561 42.2534C36.9426 38.7375 31.4698 37.5531 25.386 38.5713C29.7868 34.6154 35.9688 34.2011 41.3339 36.1884C47.0829 38.3185 51.8395 43.0751 59.1662 45.7529C62.5533 46.9912 65.9849 47.9065 69.6343 47.7075C75.306 47.3962 80.3528 45.1748 84.9899 42.0872C88.37 39.8354 92.0755 40.0226 92.5343 41.4529C92.9627 42.7848 90.6359 43.4074 91.0666 45.7553C91.6191 48.7726 97.546 49.2173 100.914 47.9556L113.279 43.3208L120.348 41.1018C124.615 39.7628 133.187 42.319 132.808 47.5343L128.4 108.009C123.742 109.68 119.947 112.321 116.792 116.143C112.544 113.61 110.968 108.987 111.743 104.343L114.243 92.782C115.315 87.8218 114.739 82.9483 112.27 78.5406L109.8 74.1328L109.798 74.1305Z" fill="white"/>
<path d="M119.744 61.4754C123.829 67.1542 123.941 75.4992 122.731 75.9322C122.401 76.0493 121.947 75.7379 121.855 75.1785C121.226 71.2553 120.378 67.496 118.749 63.8841C117.764 61.6978 116.148 60.2114 114.606 57.9595C116.855 58.004 118.447 59.6753 119.742 61.4754H119.744Z" fill="#FF9900"/>
<path d="M127.66 67.2668C126.405 65.1952 126.319 63.1166 125.668 61.0941C124.629 57.8568 122.967 55.2773 120.492 52.4589C126.286 53.105 129.607 61.2978 127.658 67.2692L127.66 67.2668Z" fill="#FF9900"/>
<path d="M122.818 83.5165C123.326 90.4827 119.501 94.5276 119.881 91.508L121.133 81.5689C122.264 81.6134 122.746 82.5123 122.818 83.5141V83.5165Z" fill="#FF9900"/>
<path d="M121.724 146.419C115.851 145.167 115.573 139.345 113.576 139.626C113.049 139.701 112.787 140.005 112.537 140.644C105.02 159.762 91.1091 171.957 70.6832 176.342C73.3798 173.76 76.0694 170.005 74.0938 168.697C72.1181 167.388 71.3129 174.109 61.2264 177.451C56.5963 178.987 51.917 179.069 47.4718 176.985C44.1596 175.434 41.7181 173.013 38.9583 170.705C35.0094 167.405 31.3624 164.144 27.6756 160.544C24.2791 157.227 20.6392 154.523 16.8517 151.784C7.54471 145.057 7.84902 134.804 12.8911 125.038C16.6926 117.677 17.6148 109.755 16.3578 101.502L14.1575 87.0494C12.4932 76.1272 16.3204 61.7922 25.9013 54.9547C38.9794 67.4475 58.0827 68.2224 74.2717 62.0473C78.1363 60.1911 82.0197 59.5544 86.3455 59.7791C93.0519 60.1302 99.3557 59.0909 105.791 56.2819C102.939 63.7772 103.576 71.4667 108.012 78.0093C110.964 82.3631 112.099 87.122 110.879 92.3724L108.574 102.297C106.849 109.72 110.081 118.121 117.726 120.081L122.176 115.539C124.786 112.876 128.115 111.106 131.825 110.839C137.473 110.434 141.722 114.17 142.614 119.753C144.236 129.903 139.287 140.254 130.25 145.373C127.693 146.822 124.494 147.009 121.727 146.419H121.724Z" fill="white"/>
<path d="M75.2957 119.115C70.3894 121.29 64.9751 118.687 63.4629 113.612C61.6535 107.533 62.3885 100.908 65.27 95.1688C67.976 97.2756 70.4573 99.298 73.9731 100.571C73.821 96.1988 72.3767 92.1726 71.0986 87.9053C73.7437 85.4569 77.9712 84.9793 80.9651 86.8918C83.4487 88.4788 84.8766 91.2878 85.5648 94.0944C86.8686 99.4198 85.8738 104.675 83.7764 109.649C82.07 113.696 79.556 117.226 75.2934 119.113L75.2957 119.115Z" fill="#FF9900"/>
<path d="M28.3437 117.598C20.5886 115.978 19.2754 104.071 21.5366 96.3156L30.8647 97.3806C29.5094 94.0005 27.3652 91.318 25.4317 88.1789C27.2318 86.0207 29.7856 85.5198 32.6578 86.1073C40.0313 87.6148 43.7626 103.055 36.471 113.748C34.6404 116.432 31.5576 118.27 28.3437 117.598Z" fill="#FF9900"/>
<path d="M90.7364 87.6148C88.9504 88.7594 87.3703 85.061 86.1344 83.5652C79.5567 75.6135 70.767 78.2726 69.6668 76.9126C68.2647 75.1781 74.5333 68.8392 81.4528 70.1852C84.5262 70.7821 87.361 72.8466 89.0276 75.4543C91.5229 79.3564 92.3141 86.6059 90.7364 87.6148Z" fill="#FF9900"/>
<path d="M37.5226 76.1853C36.3054 77.7139 33.6041 76.0027 30.8396 76.3913C23.2086 77.4611 20.0251 82.248 17.8317 81.0355C15.4862 79.7387 18.3139 72.2481 24.2994 68.3553C27.6022 66.2065 31.6237 66.6255 34.5732 69.2987C36.4692 71.0192 38.5689 74.8721 37.5226 76.1877V76.1853Z" fill="#FF9900"/>
<path d="M42.5056 124.027C46.5856 126.691 50.1436 123.032 51.0472 125.53C52.2667 128.9 44.1535 129.781 39.8488 126.129C37.2177 123.898 36.4265 119.713 38.3553 116.852C40.3871 113.837 43.8913 112.845 47.3253 113.229C53.0064 113.865 56.7611 120.345 53.8819 121.206C53.1679 121.419 52.1333 121.115 51.7869 120.129C50.2021 115.621 43.9241 115.797 41.6816 117.913C39.8628 119.631 40.3895 122.641 42.5079 124.025L42.5056 124.027Z" fill="#FF9900"/>
<path d="M129.03 131.958C127.633 138.391 120.667 139.1 120.697 137.218C120.72 135.76 124.665 136.617 126.289 132.186C127.623 128.546 126.439 125.456 124.587 125.346C124.005 125.311 123.426 125.781 123.134 126.446L121.888 129.264C121.652 129.798 120.95 129.934 120.601 129.854C118.433 129.36 122.453 122.186 126.09 118.7C128.719 116.179 132.951 115.247 135.961 117.382C139.835 120.13 139.229 127.614 137.228 127.483C136.727 127.45 136.303 126.975 136.319 126.291L136.387 123.298C136.434 121.254 135.388 119.093 133.272 118.642C130.325 118.012 127.579 119.807 126.469 122.605C129.187 125.17 129.793 128.478 129.037 131.958H129.03Z" fill="#FF9900"/>
<path d="M40.3494 163.996C39.818 163.413 40.2394 162.615 40.5039 162.338C42.1026 160.665 43.3456 166.87 52.662 167.224C58.3642 167.439 63.3876 164.92 66.3042 159.899C66.5804 159.424 67.1563 159.099 67.608 159.256C69.6797 159.977 65.3796 166.88 59.1484 169.021C52.4115 171.336 45.1714 169.284 40.3517 163.998L40.3494 163.996Z" fill="#FF9900"/>
<path d="M87.3518 127.723C87.5648 128.94 87.1084 130.155 86.4272 130.682C85.5096 131.393 84.3205 131.286 83.4521 130.85C82.3425 130.295 81.9797 129.106 82.1857 127.786C82.4127 126.332 83.4801 125.649 84.681 125.506C86.0855 125.34 87.0452 125.979 87.3495 127.723H87.3518Z" fill="#FF9900"/>
<path d="M92.1058 128.694C93.5563 128.694 94.7322 127.518 94.7322 126.068C94.7322 124.617 93.5563 123.441 92.1058 123.441C90.6553 123.441 89.4794 124.617 89.4794 126.068C89.4794 127.518 90.6553 128.694 92.1058 128.694Z" fill="#FF9900"/>
<path d="M86.5623 122.847C87.7957 122.847 88.7955 121.847 88.7955 120.614C88.7955 119.38 87.7957 118.381 86.5623 118.381C85.329 118.381 84.3292 119.38 84.3292 120.614C84.3292 121.847 85.329 122.847 86.5623 122.847Z" fill="#FF9900"/>
<path d="M20.8135 126.005C21.5711 126.005 22.1852 125.391 22.1852 124.633C22.1852 123.876 21.5711 123.262 20.8135 123.262C20.0559 123.262 19.4418 123.876 19.4418 124.633C19.4418 125.391 20.0559 126.005 20.8135 126.005Z" fill="#FF9900"/>
<path d="M17.7187 130.908C18.4517 130.908 19.0459 130.314 19.0459 129.581C19.0459 128.848 18.4517 128.254 17.7187 128.254C16.9857 128.254 16.3915 128.848 16.3915 129.581C16.3915 130.314 16.9857 130.908 17.7187 130.908Z" fill="#FF9900"/>
<path d="M21.7501 130.496C22.4611 130.496 23.0375 129.92 23.0375 129.209C23.0375 128.498 22.4611 127.922 21.7501 127.922C21.0391 127.922 20.4626 128.498 20.4626 129.209C20.4626 129.92 21.0391 130.496 21.7501 130.496Z" fill="#FF9900"/>
<path d="M90.1287 138.703C90.0959 141.61 85.4588 139.679 81.9195 137.43C77.9003 145.887 70.8053 154.962 63.0877 160.03C55.3701 165.098 46.8027 163.808 40.8056 157.298C35.8314 151.9 32.8469 145.225 31.4986 137.823C29.2912 136.856 27.4747 135.587 25.5717 133.975L21.1663 136.636C20.3844 137.109 19.6096 136.999 18.9448 136.521C18.4556 136.17 17.95 134.855 18.8957 134.398C27.5449 130.227 26.0492 124.139 28.4345 124.183C30.5927 124.223 29.6868 127.9 27.6035 131.128C31.0725 134.359 35.1455 135.95 39.5299 137.263C49.3495 140.201 59.3494 140.304 69.3119 137.785C72.6405 136.943 75.8381 136.201 78.6564 134.106C76.3998 130.541 74.5319 125.747 77.2613 125.485C78.0712 125.407 78.7711 126 79.0075 127.006C80.1147 131.695 83.6236 135.754 88.3497 136.849C89.4358 137.102 90.138 137.682 90.1263 138.708L90.1287 138.703Z" fill="#FF9900"/>
<path d="M62.3355 146C54.7021 148.081 45.7087 147.346 40.3038 141.019C51.4812 143.77 60.1843 143.278 71.2329 140.729C68.7165 143.294 65.8092 145.055 62.3378 146.003L62.3355 146Z" fill="white"/>
<path d="M64.2954 154.831C60.1733 159.241 53.2679 161.177 47.9238 158.249C51.6387 154.098 59.4827 152.455 64.2954 154.831Z" fill="white"/>
</svg>
