<svg width="302" height="104" viewBox="0 0 302 104" fill="none" xmlns="http://www.w3.org/2000/svg">
<path d="M12.467 37.127C13.015 52.608 50.964 57.677 50.964 84.392C50.964 94.804 42.059 103.161 23.701 103.024C11.645 102.887 2.06344e-05 97.133 0.411021 86.036L14.796 78.364C13.015 91.653 20.002 100.147 26.715 100.421C32.332 100.558 37.812 97.955 37.675 91.653C37.401 72.884 1.64402 70.418 2.19202 43.429C2.32902 30.962 14.522 25.345 26.167 25.482C37.401 25.619 48.772 31.099 49.868 41.785L36.168 50.553C36.579 41.1 32.88 28.496 22.605 28.222C17.262 27.948 12.33 30.962 12.467 37.127ZM120.17 87.543C120.444 90.831 121.403 91.242 124.965 92.201V93.982C119.896 96.311 106.47 100.421 101.401 102.613V92.612C97.5654 98.777 88.5234 102.613 79.8924 102.613C68.7954 102.613 57.2874 97.133 57.2874 86.447C57.2874 65.075 91.5374 60.417 101.538 50.827C101.812 41.648 99.7574 28.222 87.8384 28.222C73.4534 28.085 71.6724 44.251 73.1794 55.074L59.6164 46.58C60.5754 31.784 76.1934 25.619 89.0714 25.482C108.799 25.482 119.348 36.442 119.622 55.622C119.759 66.034 120.17 77.816 120.17 87.543ZM101.401 86.858C101.401 75.624 100.99 64.527 101.538 53.156C91.4004 63.705 74.6864 70.144 74.6864 90.831C74.6864 96.722 77.9744 100.284 82.2214 100.284C89.3454 100.284 99.0724 95.215 101.401 86.858ZM193.503 95.215C193.64 99.051 196.243 100.284 199.531 100.558V102.613H168.569V100.558C171.446 100.284 173.775 99.462 174.323 96.859C174.323 89.735 174.871 70.144 174.871 61.376C174.871 58.499 175.008 50.279 174.46 42.881C173.912 35.62 172.131 31.373 168.432 30.962C162.13 30.551 152.129 44.251 152.129 50.416C151.855 71.377 151.581 70.418 151.992 95.215C151.992 99.051 154.595 100.284 157.883 100.558V102.613H127.058V100.558C130.62 100.284 132.949 99.051 132.949 95.215C133.36 68.089 133.36 70.966 133.36 44.114C133.36 39.319 133.36 37.812 128.565 36.442V34.661C133.771 33.291 147.197 28.496 152.266 26.167C152.266 31.373 152.266 36.579 152.129 41.785C156.787 33.565 164.048 26.167 173.912 26.167C182.406 26.03 190.9 31.51 192.818 41.374C193.777 46.717 193.64 53.019 193.64 59.047C193.366 71.788 193.229 74.391 193.503 95.215ZM241.592 84.118H243.921C242.825 93.297 235.153 102.476 225.426 102.613C205.561 102.75 208.301 67.952 208.301 55.074V28.085C205.972 28.085 203.917 28.222 201.588 28.085V26.167C215.151 26.167 214.329 7.53502 207.479 7.53502V5.48002H226.111C227.892 14.796 222.686 22.879 214.74 26.167H234.879V28.085H227.07C227.07 36.853 227.07 45.347 226.933 53.978C226.796 56.992 226.248 73.021 226.659 85.488C227.07 94.393 229.262 97.681 231.865 97.681C236.112 97.681 241.044 90.283 241.592 84.118ZM273.652 0.274022L290.229 1.75238e-05L268.309 24.66H265.98L273.652 0.274022ZM299.545 81.515L301.874 82.2C298.723 93.434 288.174 102.613 276.529 102.613C254.883 102.613 243.649 86.584 243.786 65.623C243.923 43.84 254.746 25.482 278.036 25.482C290.092 25.482 301.737 35.62 301.737 57.129H262.692L262.281 63.294C261.87 81.241 266.665 100.284 278.721 100.284C288.174 100.284 297.216 90.146 299.545 81.515ZM278.036 28.085C266.528 28.085 263.788 46.854 262.829 55.211H288.996C289.27 48.087 288.722 28.222 278.036 28.085Z" fill="white"/>
</svg>
