<svg width="433" height="45" viewBox="0 0 433 45" fill="none" xmlns="http://www.w3.org/2000/svg">
<path d="M-2.14577e-05 15.872C-2.14577e-05 11.072 3.83998 7.16799 8.63998 7.16799V25.216C3.83998 25.216 -2.14577e-05 21.312 -2.14577e-05 16.512V15.872ZM45.824 0.0639839V7.16799H8.63998C8.63998 3.26398 11.84 0.0639839 15.808 0.0639839H45.824ZM30.528 18.048C34.496 18.048 37.696 21.248 37.696 25.216H8.63998C8.63998 21.248 11.84 18.048 15.808 18.048H30.528ZM37.696 25.216C42.496 25.216 46.336 29.056 46.336 33.856V36.224C46.336 40.96 42.496 44.8 37.696 44.8H0.767979V37.696H30.528C34.496 37.696 37.696 40.832 37.696 44.736V25.216ZM89.169 0.0639839H97.809V28.992C97.809 33.728 93.969 37.632 89.233 37.632C89.233 41.6 86.033 44.8 82.129 44.8H69.457C65.489 44.8 62.289 41.6 62.289 37.632C57.553 37.568 53.777 33.728 53.777 28.992V0.0639839H62.353V37.632L89.169 37.568V0.0639839ZM144.483 7.16799C149.283 7.16799 153.123 11.008 153.123 15.808V16.384C153.123 21.184 149.283 25.024 144.547 25.024C144.483 28.992 141.283 32.192 137.315 32.192H122.211C118.435 32.192 115.363 29.248 115.043 25.6V44.864H106.403V15.872C106.403 11.072 110.243 7.16799 115.043 7.16799C115.107 3.19999 118.307 -1.52588e-05 122.211 -1.52588e-05H137.315C141.283 -1.52588e-05 144.483 3.19999 144.483 7.16799ZM144.483 25.024V7.16799H115.043V25.024H144.483ZM165.61 25.6V36.16H204.906V44.8H174.25C169.514 44.8 165.674 41.024 165.61 36.288C161.706 36.288 158.506 33.088 158.506 29.12V15.68C158.506 11.776 161.706 8.57598 165.61 8.57598C165.674 3.83998 169.514 -1.52588e-05 174.25 -1.52588e-05H204.906V8.63999H165.61V25.28C165.802 20.672 169.578 16.96 174.25 16.96H204.906V25.6H165.61ZM254.424 7.16799H222.168C222.168 3.26398 225.368 -1.52588e-05 229.336 -1.52588e-05H247.32C251.224 -1.52588e-05 254.424 3.26398 254.424 7.16799ZM254.936 23.68C259.48 24 263 27.84 263 32.448V44.8H254.296V24.32C253.976 27.968 250.904 30.848 247.192 30.848H229.336C225.368 30.848 222.168 27.776 222.168 23.808V44.8H213.528V15.872C213.528 11.072 217.368 7.16799 222.168 7.16799V23.616L254.36 23.68V7.16799C256.728 7.16799 258.904 8.12799 260.44 9.72799C262.04 11.264 263 13.44 263 15.808C263 20.16 259.48 23.68 255.128 23.68H254.936ZM319.982 15.808V16.896C319.982 21.248 316.654 24.832 312.366 25.152C316.654 25.664 319.982 29.376 319.982 33.856V36.224C319.982 40.96 316.142 44.8 311.342 44.8H279.598C274.862 44.8 271.022 40.896 271.022 36.16V15.872C271.022 11.072 274.862 7.16799 279.662 7.16799C279.726 3.19999 282.926 -1.52588e-05 286.83 -1.52588e-05H304.302C308.206 -1.52588e-05 311.406 3.19999 311.47 7.10398C316.142 7.16799 319.982 11.072 319.982 15.808ZM311.342 44.736V25.216H279.662V44.608H279.726C279.79 40.768 282.926 37.696 286.83 37.696H304.174C308.142 37.696 311.278 40.832 311.342 44.736ZM311.342 25.024V7.16799H279.726L279.662 24C280.302 20.608 283.31 18.048 286.83 18.048H304.174C308.078 18.048 311.214 21.12 311.342 25.024ZM365.916 7.16799C370.652 7.23199 374.428 11.136 374.428 15.872V44.8H365.788V27.008H336.604V44.8H328.028V15.872C328.028 11.136 331.804 7.23199 336.54 7.16799C336.54 3.19999 339.74 0.0639839 343.708 0.0639839H358.748C362.716 0.0639839 365.916 3.19999 365.916 7.16799ZM365.788 26.88V7.16799H336.604V26.752C336.796 22.912 339.932 19.84 343.772 19.84H358.62C362.524 19.84 365.724 22.976 365.788 26.88ZM423.987 7.16799H391.731C391.731 3.26398 394.931 -1.52588e-05 398.899 -1.52588e-05H416.883C420.787 -1.52588e-05 423.987 3.26398 423.987 7.16799ZM424.499 23.68C429.043 24 432.563 27.84 432.563 32.448V44.8H423.859V24.32C423.539 27.968 420.467 30.848 416.755 30.848H398.899C394.931 30.848 391.731 27.776 391.731 23.808V44.8H383.091V15.872C383.091 11.072 386.931 7.16799 391.731 7.16799V23.616L423.923 23.68V7.16799C426.291 7.16799 428.467 8.12799 430.003 9.72799C431.603 11.264 432.563 13.44 432.563 15.808C432.563 20.16 429.043 23.68 424.691 23.68H424.499Z" fill="white"/>
</svg>
