<svg width="72" height="88" viewBox="0 0 72 88" fill="none" xmlns="http://www.w3.org/2000/svg">
<path d="M28.5397 87.6502C25.0501 88.5043 21.5549 87.7957 18.8682 85.51L13.6505 81.0719C11.0616 78.8706 8.77031 76.5183 5.96261 74.5724C4.09674 73.0508 2.50408 71.3949 1.79327 69.0537C0.783699 65.7251 1.18575 62.2643 2.55517 59.079C0.10399 54.8641 0.510481 49.6607 4.15227 46.4199C3.51698 43.1357 3.33484 40.0237 2.98943 36.7417L1.41899 21.8181L0.0273545 7.95729C-0.0870414 6.81445 0.143971 5.7871 0.974729 5.00299C2.30194 4.0123 3.71579 3.35147 5.35731 2.89388C14.9932 0.207823 38.0014 -1.75051 59.6942 2.37855C61.7655 2.77283 63.6425 3.37257 65.444 4.33772C66.9633 5.15181 67.6742 6.59342 67.5509 8.30825L66.6757 20.4509L64.6199 49.5397C69.0391 50.3549 70.9317 54.2377 71.0916 58.4726C71.1049 63.0762 69.0413 67.4632 65.4706 70.3564C62.3475 72.922 58.2026 73.7528 54.6819 71.6403C50.0716 80.4233 41.7574 85.9787 32.0226 87.1282L28.5441 87.6524L28.5397 87.6502Z" fill="white"/>
<path d="M53.9306 10.5052C40.6962 12.2133 27.4985 12.2111 14.3707 10.5129C11.0077 10.0776 7.87904 9.40341 4.71816 8.38717C3.59975 8.02733 2.58241 7.57196 1.81829 6.66346C2.27032 6.01373 2.91338 5.54838 3.68416 5.25517C11.1443 2.41749 23.378 1.75666 31.66 1.68335C39.57 1.61338 47.2779 1.94435 55.069 3.13052C58.0255 3.58144 60.8088 4.13231 63.5498 5.18742C64.3795 5.50618 65.1958 5.91156 65.6356 6.69234C64.9326 7.61417 63.9552 8.11285 62.9101 8.48158C60.0047 9.50892 57.1514 10.0898 53.9317 10.5052H53.9306Z" fill="#1A0154"/>
<path d="M54.1979 69.0349C51.8134 74.2416 48.206 78.5286 43.4136 81.5063C39.3065 84.0574 34.8084 85.1503 30.0649 85.7545C27.7969 86.0432 25.7112 86.7074 23.4255 86.0577C19.837 85.0381 15.3433 80.319 12.1814 77.4813L10.5998 76.0619L6.25943 72.6867C2.02789 69.2537 2.1012 63.6494 4.52905 58.8259C1.50812 55.2308 2.1534 49.9619 5.90291 47.072C5.30872 44.0811 5.09659 41.199 4.77117 38.1358L3.25404 23.8808L1.62695 8.74609C5.94179 11.0385 11.0241 11.6771 15.8476 12.3746C26.3853 13.6318 36.8453 13.7651 47.4397 12.8821C51.6646 12.5423 55.6384 12.0069 59.7134 11.0751C61.9102 10.572 63.9038 9.91116 65.9296 8.76164L64.7479 24.7071L62.9009 50.9881C65.6353 50.9348 68.0487 52.5741 68.8895 55.1797C70.019 58.6815 69.3759 62.4244 67.5001 65.5486C66.3372 67.5178 64.8123 69.1182 62.8176 70.1889C59.8844 71.6904 56.4337 71.6282 54.1991 69.0349H54.1979Z" fill="#1A0154"/>
<path d="M5.29161 57.1885C3.72228 54.6929 3.86999 51.2888 6.09571 49.0542C6.62327 51.7408 6.41336 54.483 5.29161 57.1885Z" fill="white"/>
<path d="M46.4239 19.713C45.9963 18.317 44.4936 17.6228 45.4187 16.5488C45.7719 16.1379 46.3306 15.8558 46.9748 16.0368C47.4179 16.1612 47.8244 16.7354 47.8888 17.3607C47.9888 18.3314 47.4301 19.2188 46.4228 19.7142L46.4239 19.713Z" fill="white"/>
<path d="M37.5894 16.9336C37.7671 17.4411 36.7886 17.8509 36.351 17.681C36.0389 17.56 35.939 17.3723 35.9145 17.1357C35.889 16.8847 36.0656 16.6192 36.4354 16.5615C36.6964 16.5204 37.4306 16.4782 37.5894 16.9324V16.9336Z" fill="white"/>
<path d="M52.0957 35.1726C49.1414 29.9015 53.1774 25.62 51.9457 24.6082C51.748 24.4461 51.3193 24.3606 51.0395 24.5116C44.1602 28.2234 39.8031 26.0332 35.7782 27.5414C32.7772 28.6665 29.8207 29.6072 26.5643 29.6861C21.3898 29.8116 16.1865 28.1034 12.7213 24.2117C11.6473 24.3817 10.9809 25.0791 10.2657 25.72C8.57972 27.2304 7.38579 28.9275 6.33179 31.1188L5.51991 23.2055C5.24114 20.4878 14.3606 16.4217 21.1222 22.8579C23.1713 24.8081 25.6647 26.0876 28.4624 26.2131C29.3353 26.252 30.1994 26.2486 30.7136 25.4245C28.1936 25.4279 26.0056 24.8359 24.1053 23.3887L19.7194 20.0479C17.5281 18.3798 14.9315 17.8178 12.0449 18.3009C14.1329 16.4239 17.0661 16.2273 19.6117 17.1703C22.3394 18.181 24.5963 20.4378 28.0725 21.7084C29.6796 22.2959 31.3078 22.7301 33.0393 22.6357C35.7304 22.488 38.1249 21.434 40.3251 19.9691C41.9289 18.9007 43.687 18.9895 43.9047 19.6681C44.108 20.3001 43.004 20.5955 43.2083 21.7095C43.4704 23.1411 46.2826 23.3521 47.8808 22.7535L53.7472 20.5544L57.1013 19.5015C59.126 18.8662 63.1932 20.079 63.0132 22.5535L60.9219 51.2469C58.7117 52.0399 56.9114 53.2927 55.4143 55.1064C53.3984 53.9047 52.651 51.7112 53.0186 49.5076L54.2048 44.0222C54.7134 41.6688 54.4402 39.3564 53.2685 37.2651L52.0968 35.1737L52.0957 35.1726Z" fill="white"/>
<path d="M56.8148 29.1682C58.7529 31.8626 58.8062 35.822 58.232 36.0275C58.0754 36.083 57.8599 35.9353 57.8166 35.6699C57.5178 33.8084 57.1158 32.0247 56.3428 30.311C55.8752 29.2737 55.1089 28.5684 54.377 27.5C55.4443 27.5211 56.1995 28.3141 56.8137 29.1682H56.8148Z" fill="#1A0154"/>
<path d="M60.5707 31.916C59.9754 30.9331 59.9343 29.9469 59.6255 28.9873C59.1324 27.4513 58.3439 26.2273 57.1699 24.8901C59.9188 25.1967 61.4947 29.0839 60.5696 31.9171L60.5707 31.916Z" fill="#1A0154"/>
<path d="M58.2736 39.626C58.5146 42.9312 56.6998 44.8504 56.8797 43.4177L57.4739 38.7019C58.0103 38.723 58.2391 39.1495 58.2736 39.6249V39.626Z" fill="#1A0154"/>
<path d="M57.7546 69.4715C54.968 68.8773 54.8358 66.1151 53.8884 66.2484C53.6385 66.2839 53.5141 66.4283 53.3953 66.7315C49.829 75.8021 43.2285 81.5886 33.5371 83.6688C34.8165 82.4438 36.0926 80.6623 35.1553 80.0414C34.2179 79.4206 33.8358 82.6092 29.0501 84.1952C26.8532 84.9238 24.6331 84.9627 22.524 83.9742C20.9524 83.2379 19.794 82.0895 18.4846 80.9944C16.6109 79.4284 14.8806 77.8812 13.1313 76.1731C11.5198 74.5993 9.79272 73.3165 7.99571 72.0171C3.57981 68.8251 3.72419 63.9605 6.11651 59.3269C7.92018 55.8339 8.35778 52.0755 7.76136 48.1594L6.71736 41.3023C5.92769 36.1201 7.74359 29.3186 12.2894 26.0744C18.4946 32.0019 27.5585 32.3695 35.2397 29.4396C37.0733 28.5589 38.9159 28.2568 40.9684 28.3634C44.1503 28.53 47.1413 28.0369 50.1944 26.7041C48.8417 30.2604 49.1438 33.9088 51.2484 37.0131C52.6489 39.0788 53.1876 41.3368 52.609 43.8279L51.515 48.5371C50.6964 52.0589 52.2302 56.045 55.8576 56.9746L57.9689 54.8199C59.2073 53.556 60.7866 52.7164 62.547 52.5898C65.2269 52.3976 67.2427 54.1702 67.6659 56.8191C68.4356 61.6348 66.0877 66.5461 61.7995 68.975C60.5867 69.6625 59.0684 69.7514 57.7557 69.4715H57.7546Z" fill="white"/>
<path d="M35.7255 56.5165C33.3976 57.5483 30.8287 56.3133 30.1112 53.9054C29.2527 51.0211 29.6014 47.878 30.9686 45.1547C32.2525 46.1542 33.4298 47.1138 35.098 47.718C35.0258 45.6433 34.3405 43.7331 33.7341 41.7084C34.9891 40.5466 36.995 40.3201 38.4155 41.2274C39.5938 41.9805 40.2713 43.3132 40.5979 44.6449C41.2165 47.1716 40.7445 49.665 39.7493 52.0251C38.9397 53.9454 37.7469 55.6202 35.7244 56.5154L35.7255 56.5165Z" fill="#1A0154"/>
<path d="M13.4482 55.7967C9.76869 55.0281 9.14562 49.3783 10.2185 45.6988L14.6444 46.2041C14.0013 44.6003 12.984 43.3275 12.0666 41.8382C12.9207 40.8142 14.1324 40.5765 15.4951 40.8553C18.9937 41.5705 20.764 48.8963 17.3044 53.9697C16.4359 55.2436 14.9731 56.1154 13.4482 55.7967Z" fill="#1A0154"/>
<path d="M43.0516 41.5705C42.2042 42.1136 41.4545 40.3588 40.8681 39.6491C37.7472 35.8762 33.5768 37.1379 33.0548 36.4927C32.3895 35.6697 35.3638 32.6621 38.6468 33.3007C40.1051 33.5839 41.4501 34.5635 42.2409 35.8007C43.4248 37.6522 43.8002 41.0918 43.0516 41.5705Z" fill="#1A0154"/>
<path d="M17.8033 36.1476C17.2258 36.8728 15.9441 36.0609 14.6324 36.2453C11.0117 36.7529 9.50128 39.0241 8.46061 38.4488C7.34775 37.8335 8.6894 34.2795 11.5293 32.4325C13.0964 31.4129 15.0045 31.6117 16.4039 32.8801C17.3035 33.6964 18.2998 35.5245 17.8033 36.1487V36.1476Z" fill="#1A0154"/>
<path d="M20.1676 58.8469C22.1034 60.1108 23.7916 58.3749 24.2203 59.56C24.799 61.1593 20.9495 61.5769 18.907 59.8443C17.6587 58.7858 17.2833 56.8 18.1984 55.4428C19.1625 54.0123 20.8251 53.5414 22.4544 53.7236C25.1499 54.0257 26.9314 57.0999 25.5653 57.5086C25.2266 57.6097 24.7357 57.4653 24.5713 56.9977C23.8194 54.8586 20.8407 54.9419 19.7767 55.9459C18.9137 56.7612 19.1636 58.1894 20.1687 58.8458L20.1676 58.8469Z" fill="#1A0154"/>
<path d="M61.2209 62.6102C60.5578 65.6622 57.2526 65.9988 57.267 65.1058C57.2781 64.4139 59.1495 64.8204 59.9203 62.7179C60.5534 60.9909 59.9914 59.5249 59.1129 59.4727C58.8363 59.456 58.562 59.6792 58.4232 59.9947L57.8323 61.3319C57.7201 61.5851 57.3869 61.6495 57.2215 61.6117C56.193 61.3774 58.1 57.9733 59.8259 56.3196C61.0732 55.1234 63.0812 54.6814 64.5095 55.6943C66.3476 56.9982 66.0599 60.5489 65.1103 60.4867C64.8727 60.4711 64.6716 60.2457 64.6794 59.9214L64.7116 58.5008C64.7338 57.5313 64.2374 56.5061 63.2333 56.2918C61.8351 55.993 60.5323 56.8449 60.0058 58.1721C61.2953 59.3894 61.5829 60.9587 61.2242 62.6102H61.2209Z" fill="#1A0154"/>
<path d="M19.1445 77.8109C18.8924 77.5344 19.0923 77.1556 19.2178 77.0246C19.9764 76.2305 20.5661 79.1748 24.9865 79.3425C27.692 79.4447 30.0754 78.2496 31.4593 75.8673C31.5904 75.6418 31.8636 75.4875 32.0779 75.5619C33.0608 75.9039 31.0206 79.1792 28.0641 80.1954C24.8677 81.2939 21.4325 80.3198 19.1456 77.812L19.1445 77.8109Z" fill="#1A0154"/>
<path d="M41.4458 60.6005C41.5468 61.1781 41.3303 61.7545 41.0071 62.0044C40.5717 62.342 40.0075 62.2909 39.5955 62.0844C39.069 61.8211 38.8969 61.2569 38.9946 60.6305C39.1023 59.9408 39.6088 59.6165 40.1785 59.5488C40.8449 59.4699 41.3003 59.7731 41.4447 60.6005H41.4458Z" fill="#1A0154"/>
<path d="M43.7014 61.0614C44.3896 61.0614 44.9475 60.5035 44.9475 59.8153C44.9475 59.1271 44.3896 58.5692 43.7014 58.5692C43.0131 58.5692 42.4552 59.1271 42.4552 59.8153C42.4552 60.5035 43.0131 61.0614 43.7014 61.0614Z" fill="#1A0154"/>
<path d="M41.0712 58.2871C41.6564 58.2871 42.1307 57.8127 42.1307 57.2275C42.1307 56.6423 41.6564 56.168 41.0712 56.168C40.486 56.168 40.0116 56.6423 40.0116 57.2275C40.0116 57.8127 40.486 58.2871 41.0712 58.2871Z" fill="#1A0154"/>
<path d="M9.87537 59.7855C10.2348 59.7855 10.5262 59.4942 10.5262 59.1347C10.5262 58.7753 10.2348 58.4839 9.87537 58.4839C9.51592 58.4839 9.22453 58.7753 9.22453 59.1347C9.22453 59.4942 9.51592 59.7855 9.87537 59.7855Z" fill="#1A0154"/>
<path d="M8.407 62.112C8.75479 62.112 9.03673 61.8301 9.03673 61.4823C9.03673 61.1345 8.75479 60.8525 8.407 60.8525C8.05921 60.8525 7.77727 61.1345 7.77727 61.4823C7.77727 61.8301 8.05921 62.112 8.407 62.112Z" fill="#1A0154"/>
<path d="M10.3198 61.9165C10.6571 61.9165 10.9306 61.643 10.9306 61.3057C10.9306 60.9683 10.6571 60.6948 10.3198 60.6948C9.9824 60.6948 9.70891 60.9683 9.70891 61.3057C9.70891 61.643 9.9824 61.9165 10.3198 61.9165Z" fill="#1A0154"/>
<path d="M42.7633 65.8103C42.7478 67.1897 40.5476 66.2734 38.8683 65.2061C36.9613 69.2188 33.595 73.5248 29.9332 75.9293C26.2714 78.3339 22.2065 77.7219 19.361 74.6332C17.0009 72.0721 15.5849 68.9045 14.9451 65.3927C13.8978 64.934 13.0359 64.332 12.133 63.5668L10.0428 64.8296C9.67182 65.054 9.3042 65.0018 8.98878 64.7752C8.75665 64.6086 8.51675 63.9844 8.96545 63.7678C13.0693 61.7887 12.3596 58.8999 13.4913 58.921C14.5153 58.9399 14.0855 60.6847 13.097 62.2163C14.743 63.749 16.6755 64.5042 18.7557 65.1273C23.4149 66.5211 28.1595 66.57 32.8864 65.3749C34.4657 64.9751 35.9829 64.623 37.3201 63.629C36.2494 61.9375 35.3631 59.6629 36.6581 59.5385C37.0424 59.5019 37.3745 59.7829 37.4867 60.2604C38.012 62.485 39.6768 64.4109 41.9192 64.9307C42.4346 65.0506 42.7677 65.3261 42.7622 65.8125L42.7633 65.8103Z" fill="#1A0154"/>
<path d="M29.5763 69.2726C25.9545 70.26 21.6874 69.9113 19.123 66.9092C24.4263 68.2142 28.5556 67.981 33.7978 66.7715C32.6039 67.9887 31.2245 68.8239 29.5774 69.2737L29.5763 69.2726Z" fill="white"/>
<path d="M30.5062 73.4625C28.5504 75.555 25.274 76.4735 22.7384 75.084C24.501 73.1149 28.2227 72.3352 30.5062 73.4625Z" fill="white"/>
</svg>
